<svg xmlns="http://www.w3.org/2000/svg" viewBox="-48 -40 1192 440" width="1192" height="440" font-family="Inter, -apple-system, BlinkMacSystemFont, Segoe UI, Roboto, sans-serif">
<title>Qualificação de leads: dois leads, o IF Score maior ou igual a 70 e as duas portas com 1 item cada</title>
<defs><pattern id="pts" width="20" height="20" patternUnits="userSpaceOnUse"><circle cx="10" cy="10" r="1.2" fill="#d9d9de"/></pattern></defs>
<rect x="-48" y="-40" width="1192" height="440" fill="#f6f6f8"/>
<rect x="-48" y="-40" width="1192" height="440" fill="url(#pts)"/>
<path d="M101 168.0 H229" fill="none" stroke="#29a360" stroke-width="2"/><path d="M228 163.0 L235 168.0 L228 173.0 Z" fill="#29a360"/><text x="168.0" y="158.0" text-anchor="middle" font-size="12" fill="#8a8a94">1 item</text>
<path d="M341 168.0 H469" fill="none" stroke="#29a360" stroke-width="2"/><path d="M468 163.0 L475 168.0 L468 173.0 Z" fill="#29a360"/><text x="408.0" y="158.0" text-anchor="middle" font-size="12" fill="#8a8a94">1 item</text>
<path d="M581 168.0 H709" fill="none" stroke="#29a360" stroke-width="2"/><path d="M708 163.0 L715 168.0 L708 173.0 Z" fill="#29a360"/><text x="648.0" y="158.0" text-anchor="middle" font-size="12" fill="#8a8a94">2 items</text>
<path d="M821 152.0 C908.0 152.0 908.0 48.0 989 48.0" fill="none" stroke="#29a360" stroke-width="2"/><path d="M988 43.0 L995 48.0 L988 53.0 Z" fill="#29a360"/><text x="908.0" y="90.0" text-anchor="middle" font-size="12" fill="#8a8a94">1 item</text>
<path d="M821 184.0 C908.0 184.0 908.0 288.0 989 288.0" fill="none" stroke="#29a360" stroke-width="2"/><path d="M988 283.0 L995 288.0 L988 293.0 Z" fill="#29a360"/><text x="908.0" y="226.0" text-anchor="middle" font-size="12" fill="#8a8a94">1 item</text>
<path d="M48.0 120 H88 a8 8 0 0 1 8 8 V208 a8 8 0 0 1-8 8 H48.0 A48.0 48.0 0 0 1 48.0 120 Z" fill="#fff" stroke="#29a360" stroke-width="2"/><g transform="translate(24.0 144.0) scale(2)" fill="none" stroke="#3d3d3d" stroke-width="1.6" stroke-linecap="round" stroke-linejoin="round"><path d="M9 9l6.5 3.5-2.8 1 2.3 4-1.7 1-2.3-4L9 16.6z"/><path d="M6 4.5a7.5 7.5 0 0 1 10.6 1.9"/><path d="M4 8.5a10 10 0 0 1 3-4"/></g><circle cx="82" cy="202" r="8" fill="#fff"/><path d="M78 202l3 3 5-6" fill="none" stroke="#29a360" stroke-width="2" stroke-linecap="round" stroke-linejoin="round"/><circle cx="96" cy="168.0" r="4.5" fill="#fff" stroke="#a8a8b0" stroke-width="1.5"/><text x="48.0" y="238" text-anchor="middle" font-size="14" font-weight="600" fill="#2f2f34">▶️ Disparo</text>
<rect x="240" y="120" width="96" height="96" rx="9" fill="#fff" stroke="#29a360" stroke-width="2"/><g transform="translate(264.0 144.0) scale(2)" fill="none" stroke="#3d3d3d" stroke-width="1.6" stroke-linecap="round" stroke-linejoin="round"><rect x="3.5" y="3.5" width="17" height="17" rx="3"/><path d="M8 16l1-3.5 6-6a1.4 1.4 0 0 1 2 2l-6 6z"/></g><circle cx="322" cy="202" r="8" fill="#fff"/><path d="M318 202l3 3 5-6" fill="none" stroke="#29a360" stroke-width="2" stroke-linecap="round" stroke-linejoin="round"/><circle cx="240" cy="168.0" r="4.5" fill="#fff" stroke="#a8a8b0" stroke-width="1.5"/><circle cx="336" cy="168.0" r="4.5" fill="#fff" stroke="#a8a8b0" stroke-width="1.5"/><text x="288.0" y="238" text-anchor="middle" font-size="14" font-weight="600" fill="#2f2f34">📦 2 Leads</text><text x="288.0" y="256" text-anchor="middle" font-size="12" fill="#8a8a94">JSON</text>
<rect x="480" y="120" width="96" height="96" rx="9" fill="#fff" stroke="#29a360" stroke-width="2"/><g transform="translate(504.0 144.0) scale(2)" fill="none" stroke="#3d3d3d" stroke-width="1.6" stroke-linecap="round" stroke-linejoin="round"><path d="M4 12h5"/><path d="M13 7l-4 5 4 5"/><path d="M13 7h7M13 12h7M13 17h7"/></g><circle cx="562" cy="202" r="8" fill="#fff"/><path d="M558 202l3 3 5-6" fill="none" stroke="#29a360" stroke-width="2" stroke-linecap="round" stroke-linejoin="round"/><circle cx="480" cy="168.0" r="4.5" fill="#fff" stroke="#a8a8b0" stroke-width="1.5"/><circle cx="576" cy="168.0" r="4.5" fill="#fff" stroke="#a8a8b0" stroke-width="1.5"/><text x="528.0" y="238" text-anchor="middle" font-size="14" font-weight="600" fill="#2f2f34">🍕 Separar</text><text x="528.0" y="256" text-anchor="middle" font-size="12" fill="#8a8a94">leads</text>
<rect x="720" y="120" width="96" height="96" rx="9" fill="#fff" stroke="#29a360" stroke-width="2"/><g transform="translate(744.0 144.0) scale(2)" fill="none" stroke="#3d3d3d" stroke-width="1.6" stroke-linecap="round" stroke-linejoin="round"><path d="M12 21V11"/><path d="M5 5h9l2.5 2.5L14 10H5z"/><path d="M19 13h-9l-2.5 2.5L10 18h9z"/></g><circle cx="802" cy="202" r="8" fill="#fff"/><path d="M798 202l3 3 5-6" fill="none" stroke="#29a360" stroke-width="2" stroke-linecap="round" stroke-linejoin="round"/><circle cx="720" cy="168.0" r="4.5" fill="#fff" stroke="#a8a8b0" stroke-width="1.5"/><circle cx="816" cy="152.0" r="4.5" fill="#fff" stroke="#a8a8b0" stroke-width="1.5"/><text x="825" y="156.0" font-size="11" fill="#8a8a94">true</text><circle cx="816" cy="184.0" r="4.5" fill="#fff" stroke="#a8a8b0" stroke-width="1.5"/><text x="825" y="188.0" font-size="11" fill="#8a8a94">false</text><text x="768.0" y="238" text-anchor="middle" font-size="14" font-weight="600" fill="#2f2f34">❓ Score &gt;= 70?</text>
<rect x="1000" y="0" width="96" height="96" rx="9" fill="#fff" stroke="#29a360" stroke-width="2"/><g transform="translate(1024.0 24.0) scale(2)" fill="none" stroke="#3d3d3d" stroke-width="1.6" stroke-linecap="round" stroke-linejoin="round"><rect x="3.5" y="3.5" width="17" height="17" rx="3"/><path d="M8 16l1-3.5 6-6a1.4 1.4 0 0 1 2 2l-6 6z"/></g><circle cx="1082" cy="82" r="8" fill="#fff"/><path d="M1078 82l3 3 5-6" fill="none" stroke="#29a360" stroke-width="2" stroke-linecap="round" stroke-linejoin="round"/><circle cx="1000" cy="48.0" r="4.5" fill="#fff" stroke="#a8a8b0" stroke-width="1.5"/><circle cx="1096" cy="48.0" r="4.5" fill="#fff" stroke="#a8a8b0" stroke-width="1.5"/><text x="1048.0" y="118" text-anchor="middle" font-size="14" font-weight="600" fill="#2f2f34">📧 Enviar SDR</text><text x="1048.0" y="136" text-anchor="middle" font-size="12" fill="#8a8a94">manual</text>
<rect x="1000" y="240" width="96" height="96" rx="9" fill="#fff" stroke="#29a360" stroke-width="2"/><g transform="translate(1024.0 264.0) scale(2)" fill="none" stroke="#3d3d3d" stroke-width="1.6" stroke-linecap="round" stroke-linejoin="round"><rect x="3.5" y="3.5" width="17" height="17" rx="3"/><path d="M8 16l1-3.5 6-6a1.4 1.4 0 0 1 2 2l-6 6z"/></g><circle cx="1082" cy="322" r="8" fill="#fff"/><path d="M1078 322l3 3 5-6" fill="none" stroke="#29a360" stroke-width="2" stroke-linecap="round" stroke-linejoin="round"/><circle cx="1000" cy="288.0" r="4.5" fill="#fff" stroke="#a8a8b0" stroke-width="1.5"/><circle cx="1096" cy="288.0" r="4.5" fill="#fff" stroke="#a8a8b0" stroke-width="1.5"/><text x="1048.0" y="358" text-anchor="middle" font-size="14" font-weight="600" fill="#2f2f34">📋 Nutrir depois</text><text x="1048.0" y="376" text-anchor="middle" font-size="12" fill="#8a8a94">manual</text>
</svg>