<svg xmlns="http://www.w3.org/2000/svg" viewBox="-48 -40 432 344" width="432" height="344" font-family="Inter, -apple-system, BlinkMacSystemFont, Segoe UI, Roboto, sans-serif">
<title>Meu primeiro AI Agent: Chat Trigger, AI Agent e o sub-nó do modelo Gemini</title>
<defs><pattern id="pts" width="20" height="20" patternUnits="userSpaceOnUse"><circle cx="10" cy="10" r="1.2" fill="#d9d9de"/></pattern></defs>
<rect x="-48" y="-40" width="432" height="344" fill="#f6f6f8"/>
<rect x="-48" y="-40" width="432" height="344" fill="url(#pts)"/>
<path d="M101 48.0 H229" fill="none" stroke="#29a360" stroke-width="2"/><path d="M228 43.0 L235 48.0 L228 53.0 Z" fill="#29a360"/><text x="168.0" y="38.0" text-anchor="middle" font-size="12" fill="#8a8a94">1 item</text>
<path d="M48.0 0 H88 a8 8 0 0 1 8 8 V88 a8 8 0 0 1-8 8 H48.0 A48.0 48.0 0 0 1 48.0 0 Z" fill="#fff" stroke="#29a360" stroke-width="2"/><g transform="translate(24.0 24.0) scale(2)" fill="none" stroke="#3d3d3d" stroke-width="1.6" stroke-linecap="round" stroke-linejoin="round"><path d="M4 5.5a2 2 0 0 1 2-2h12a2 2 0 0 1 2 2v9a2 2 0 0 1-2 2H9l-4.5 3.5v-3.5H6a2 2 0 0 1-2-2z"/></g><circle cx="82" cy="82" r="8" fill="#fff"/><path d="M78 82l3 3 5-6" fill="none" stroke="#29a360" stroke-width="2" stroke-linecap="round" stroke-linejoin="round"/><circle cx="96" cy="48.0" r="4.5" fill="#fff" stroke="#a8a8b0" stroke-width="1.5"/><text x="48.0" y="118" text-anchor="middle" font-size="14" font-weight="600" fill="#2f2f34">💬 Chat Trigger</text>
<rect x="240" y="0" width="96" height="96" rx="9" fill="#fff" stroke="#29a360" stroke-width="2"/><g transform="translate(264.0 24.0) scale(2)" fill="none" stroke="#3d3d3d" stroke-width="1.6" stroke-linecap="round" stroke-linejoin="round"><rect x="4" y="8" width="16" height="11" rx="2.5"/><path d="M12 4.5V8M9 13h.01M15 13h.01M9 16.5h6"/><circle cx="12" cy="4" r="1"/></g><circle cx="322" cy="82" r="8" fill="#fff"/><path d="M318 82l3 3 5-6" fill="none" stroke="#29a360" stroke-width="2" stroke-linecap="round" stroke-linejoin="round"/><circle cx="240" cy="48.0" r="4.5" fill="#fff" stroke="#a8a8b0" stroke-width="1.5"/><circle cx="336" cy="48.0" r="4.5" fill="#fff" stroke="#a8a8b0" stroke-width="1.5"/><text x="288.0" y="118" text-anchor="middle" font-size="14" font-weight="600" fill="#2f2f34">AI Agent</text><text x="288.0" y="136" text-anchor="middle" font-size="12" fill="#8a8a94">Tools Agent</text>
<path d="M288.0 102 V172" fill="none" stroke="#a8a8b0" stroke-width="1.5" stroke-dasharray="4 3"/><path d="M288.0 96 l5 5 -5 5 -5-5z" fill="#fff" stroke="#a8a8b0" stroke-width="1.5"/><rect x="256" y="176" width="64" height="64" rx="8" fill="#fff" stroke="#29a360" stroke-width="2"/><g transform="translate(272.0 192.0) scale(1.33)" fill="none" stroke="#1a73e8" stroke-width="1.6" stroke-linecap="round" stroke-linejoin="round"><path d="M12 3.5l1.8 4.7 4.7 1.8-4.7 1.8L12 16.5l-1.8-4.7L5.5 10l4.7-1.8z"/><path d="M18.5 15.5l.8 2 2 .8-2 .8-.8 2-.8-2-2-.8 2-.8z"/></g><circle cx="309" cy="229" r="7" fill="#fff"/><path d="M305.5 229l2.5 2.5 4.5-5" fill="none" stroke="#29a360" stroke-width="2" stroke-linecap="round" stroke-linejoin="round"/><text x="288.0" y="258" text-anchor="middle" font-size="12" font-weight="600" fill="#2f2f34">Google Gemini Chat Model</text><text x="288.0" y="274" text-anchor="middle" font-size="11" fill="#8a8a94">gemini-3.5-flash</text>
</svg>